<svg width="66" height="31" viewBox="0 0 66 31" fill="none" xmlns="http://www.w3.org/2000/svg">
<path d="M35.2285 21.462H35.2609C35.44 21.1357 35.6353 20.8094 35.8312 20.4999L37.4453 18.1034H40.429L37.5757 21.3316L40.8364 26.0735H37.7879L35.8643 22.7966L35.2285 23.579V26.0748H32.7502V14.5008H35.2285V21.462Z" fill="white"/>
<path d="M41.6993 26.0754C41.7318 25.5538 41.7617 24.5917 41.7617 23.6951V14.5008H44.2394V19.0487H44.2718C44.7448 18.3623 45.5765 17.9256 46.6852 17.9256C48.5925 17.9256 49.992 19.5066 49.9783 21.9518C49.9783 24.8219 48.1521 26.257 46.3264 26.257C45.3968 26.257 44.5002 25.9151 43.9299 24.9692H43.8975L43.7995 26.0779L41.6993 26.0754ZM44.2425 22.6843C44.2407 22.8326 44.2572 22.9806 44.2918 23.1248C44.4546 23.7931 45.0249 24.2984 45.7424 24.2984C46.8031 24.2984 47.4545 23.4836 47.4545 22.0485C47.4545 20.8094 46.8998 19.8317 45.7424 19.8317C45.0742 19.8317 44.4546 20.3371 44.2918 21.054C44.2582 21.2039 44.2417 21.3571 44.2425 21.5107V22.6843Z" fill="white"/>
<path d="M56.046 26.0754L55.8994 25.2768H55.8508C55.3291 25.9126 54.5137 26.2545 53.5684 26.2545C51.9543 26.2545 50.9922 25.0809 50.9922 23.8093C50.9922 21.7391 52.8509 20.7445 55.6717 20.7607V20.6466C55.6717 20.2229 55.4439 19.6196 54.221 19.6196C53.4056 19.6196 52.542 19.8966 52.0198 20.2229L51.5637 18.625C52.1178 18.3131 53.2103 17.9243 54.6609 17.9243C57.3182 17.9243 58.1662 19.4892 58.1662 21.3641V24.1356C58.1662 24.9018 58.1986 25.633 58.2803 26.0754H56.046ZM55.7528 22.3093C54.4488 22.2931 53.438 22.6032 53.438 23.5647C53.438 24.2005 53.8617 24.5106 54.4157 24.5106C54.699 24.5121 54.9756 24.4248 55.2067 24.261C55.4378 24.0971 55.6118 23.865 55.7041 23.5971C55.7372 23.4584 55.7536 23.3161 55.7528 23.1735V22.3093Z" fill="white"/>
<path d="M60.1222 20.7283C60.1222 19.5541 60.0891 18.7879 60.0598 18.1034H62.1955L62.2773 19.5709H62.3397C62.7471 18.4129 63.7254 17.9244 64.4916 17.9244C64.6661 17.9174 64.8409 17.9282 65.0132 17.9568V20.2878C64.7929 20.246 64.5692 20.2252 64.345 20.2254C63.4322 20.2254 62.8126 20.7146 62.6491 21.4808C62.6154 21.6635 62.5991 21.849 62.6005 22.0348V26.0779H60.1228L60.1222 20.7283Z" fill="white"/>
<path d="M15.3756 17.336C15.6837 17.3361 15.9817 17.2262 16.216 17.0262C16.4503 16.8261 16.6055 16.549 16.6536 16.2447C16.7018 15.9404 16.6397 15.6289 16.4786 15.3663C16.3175 15.1037 16.068 14.9072 15.7749 14.8122C15.7749 14.8122 15.7749 8.44805 15.7749 6.96246C15.7743 6.95291 15.7774 6.94349 15.7835 6.93614C15.7897 6.92879 15.7984 6.92407 15.8079 6.92295C15.8174 6.92183 15.827 6.9244 15.8346 6.93013C15.8423 6.93585 15.8475 6.9443 15.8491 6.95374C17.764 14.5476 20.5374 15.7287 20.5374 15.7287C18.2831 18.2082 18.1989 20.4912 18.1989 20.4912V22.645H12.5523V20.4912C12.5523 20.4912 12.4674 18.2082 10.2132 15.7287C10.2132 15.7287 12.9872 14.5476 14.9014 6.95374C14.903 6.9443 14.9082 6.93585 14.9159 6.93013C14.9236 6.9244 14.9331 6.92183 14.9426 6.92295C14.9522 6.92407 14.9609 6.92879 14.967 6.93614C14.9731 6.94349 14.9762 6.95291 14.9756 6.96246V14.8122C14.6826 14.9072 14.433 15.1037 14.2719 15.3663C14.1108 15.6289 14.0488 15.9404 14.0969 16.2447C14.1451 16.549 14.3003 16.8261 14.5346 17.0262C14.7688 17.2262 15.0669 17.3361 15.375 17.336H15.3756ZM0 26.0754H12.5336V22.937H18.1571V26.0754H30.5234L15.2614 0L0 26.0754Z" fill="white"/>
<path d="M46.5199 28.037V28.4027H45.438V28.845H46.4313V29.1963H45.438V29.6955H46.5399V30.0698H44.995V28.037H46.5199Z" fill="white"/>
<path d="M46.9908 30.0698V28.037H47.8138C48.1299 28.037 48.3731 28.1246 48.5432 28.2997C48.7133 28.4748 48.7986 28.7261 48.799 29.0534C48.799 29.3812 48.7137 29.6324 48.5432 29.8071C48.3726 29.9818 48.1295 30.0694 47.8138 30.0698H46.9908ZM47.4332 29.6955H47.7583C48.1526 29.6955 48.3498 29.4804 48.3498 29.0503C48.3498 28.8425 48.3005 28.6834 48.2025 28.5718C48.1046 28.4601 47.9567 28.4052 47.7583 28.4052H47.4332V29.6955Z" fill="white"/>
<path d="M50.9759 28.037V29.2587C50.9759 29.5499 50.906 29.7645 50.7663 29.9026C50.6265 30.0407 50.4081 30.1098 50.1111 30.1098C49.8104 30.1098 49.5891 30.0399 49.4473 29.9001C49.3054 29.7604 49.2345 29.5447 49.2345 29.2531V28.037H49.68V29.2531C49.68 29.4191 49.7112 29.5414 49.7742 29.6212C49.8372 29.7011 49.9508 29.7416 50.1167 29.7416C50.2827 29.7416 50.3857 29.7017 50.4437 29.6212C50.5017 29.5407 50.5304 29.4191 50.5304 29.2531V28.037H50.9759Z" fill="white"/>
<path d="M52.4234 27.9884C52.5577 27.983 52.6916 28.0067 52.816 28.0577C52.9403 28.1087 53.0522 28.186 53.1441 28.2841C53.3275 28.4809 53.4194 28.7381 53.4198 29.0559C53.4203 29.3737 53.3283 29.6304 53.1441 29.8259C52.949 30.0136 52.6888 30.1184 52.4181 30.1184C52.1474 30.1184 51.8872 30.0136 51.6922 29.8259C51.5083 29.6308 51.4162 29.3741 51.4158 29.0559C51.4154 28.7377 51.5071 28.4794 51.6909 28.281C51.8744 28.0863 52.1185 27.9888 52.4234 27.9884ZM52.4178 28.354C52.3409 28.3513 52.2644 28.3668 52.1947 28.3993C52.125 28.4319 52.0639 28.4805 52.0166 28.5412C51.9102 28.6875 51.8574 28.8659 51.8669 29.0466C51.8669 29.2654 51.9162 29.4365 52.0148 29.5601C52.0635 29.621 52.1258 29.6698 52.1968 29.7023C52.2678 29.7348 52.3454 29.7502 52.4234 29.7472C52.5002 29.7506 52.5766 29.7354 52.6461 29.7028C52.7156 29.6702 52.7763 29.6212 52.8227 29.5601C52.9201 29.4353 52.9687 29.2631 52.9687 29.0466C52.9785 28.8657 52.9261 28.6869 52.8202 28.5399C52.7726 28.4793 52.7114 28.4309 52.6414 28.3986C52.5714 28.3662 52.4948 28.351 52.4178 28.354Z" fill="white"/>
<path d="M53.866 30.0698V28.037H54.3202L55.1563 29.3985V28.037H55.5843V30.0698H55.1394L54.2971 28.7053V30.0698H53.866Z" fill="white"/>
<path d="M57.5646 29.6874V30.0698H56.1259V28.037H56.5713V29.6874H57.5646Z" fill="white"/>
<path d="M58.4102 28.037V30.0698H57.9615V28.037H58.4102Z" fill="white"/>
<path d="M58.9467 30.0698V28.037H59.4002L60.2369 29.3985V28.037H60.6668V30.0698H60.2213L59.3797 28.7053V30.0698H58.9467Z" fill="white"/>
<path d="M62.729 28.037V28.4027H61.6471V28.845H62.6404V29.1963H61.6471V29.6955H62.7489V30.0698H61.2047V28.037H62.729Z" fill="white"/>
</svg>
